<mxfile host="app.diagrams.net" modified="2021-12-14T07:35:59.089Z" agent="5.0 (Macintosh; Intel Mac OS X 10_15_7) AppleWebKit/537.36 (KHTML, like Gecko) Chrome/96.0.4664.93 Safari/537.36" etag="wWQYownoX2TfqcOyNB0i" version="15.9.4" type="github">
  <diagram id="Ybzkg8RaARqKZsLNosLF" name="Page-1">
    <mxGraphModel dx="1757" dy="1811" grid="1" gridSize="10" guides="1" tooltips="1" connect="1" arrows="1" fold="1" page="1" pageScale="1" pageWidth="827" pageHeight="1169" math="0" shadow="0">
      <root>
        <mxCell id="0" />
        <mxCell id="1" parent="0" />
        <mxCell id="NyGDiiPo9qB9vYRdMTSr-2" value="" style="rounded=0;whiteSpace=wrap;html=1;fontSize=16;" vertex="1" parent="1">
          <mxGeometry x="250" y="-350" width="330" height="150" as="geometry" />
        </mxCell>
        <mxCell id="NyGDiiPo9qB9vYRdMTSr-3" value="页目录" style="rounded=1;whiteSpace=wrap;html=1;fontSize=16;fillColor=#ffcccc;strokeColor=#36393d;" vertex="1" parent="1">
          <mxGeometry x="280" y="-340" width="270" height="30" as="geometry" />
        </mxCell>
        <mxCell id="NyGDiiPo9qB9vYRdMTSr-4" value="" style="rounded=1;whiteSpace=wrap;html=1;fontSize=16;fillColor=#f9f7ed;strokeColor=#36393d;" vertex="1" parent="1">
          <mxGeometry x="330" y="-305" width="220" height="95" as="geometry" />
        </mxCell>
        <mxCell id="NyGDiiPo9qB9vYRdMTSr-5" value="" style="rounded=1;whiteSpace=wrap;html=1;fontSize=16;fillColor=#f9f7ed;strokeColor=#36393d;" vertex="1" parent="1">
          <mxGeometry x="275" y="-305" width="40" height="100" as="geometry" />
        </mxCell>
        <mxCell id="NyGDiiPo9qB9vYRdMTSr-6" value="根叶子节点（页38）" style="rounded=0;whiteSpace=wrap;html=1;fontSize=16;fillColor=#ffcc99;strokeColor=#36393d;" vertex="1" parent="1">
          <mxGeometry x="250" y="-390" width="330" height="40" as="geometry" />
        </mxCell>
        <mxCell id="NyGDiiPo9qB9vYRdMTSr-7" style="edgeStyle=orthogonalEdgeStyle;rounded=0;orthogonalLoop=1;jettySize=auto;html=1;entryX=0;entryY=0.5;entryDx=0;entryDy=0;fontSize=16;fillColor=#cdeb8b;strokeColor=#36393d;" edge="1" parent="1" source="NyGDiiPo9qB9vYRdMTSr-8" target="NyGDiiPo9qB9vYRdMTSr-12">
          <mxGeometry relative="1" as="geometry" />
        </mxCell>
        <mxCell id="NyGDiiPo9qB9vYRdMTSr-8" value="a" style="rounded=0;whiteSpace=wrap;html=1;fontSize=16;fillColor=#cdeb8b;strokeColor=#36393d;" vertex="1" parent="1">
          <mxGeometry x="349" y="-295" width="40" height="40" as="geometry" />
        </mxCell>
        <mxCell id="NyGDiiPo9qB9vYRdMTSr-9" style="edgeStyle=orthogonalEdgeStyle;rounded=0;orthogonalLoop=1;jettySize=auto;html=1;fontSize=16;" edge="1" parent="1" source="NyGDiiPo9qB9vYRdMTSr-10" target="NyGDiiPo9qB9vYRdMTSr-48">
          <mxGeometry relative="1" as="geometry" />
        </mxCell>
        <mxCell id="NyGDiiPo9qB9vYRdMTSr-10" value="页30" style="rounded=0;whiteSpace=wrap;html=1;fontSize=16;fillColor=#cce5ff;strokeColor=#36393d;" vertex="1" parent="1">
          <mxGeometry x="349" y="-255" width="40" height="40" as="geometry" />
        </mxCell>
        <mxCell id="NyGDiiPo9qB9vYRdMTSr-11" style="edgeStyle=orthogonalEdgeStyle;rounded=0;orthogonalLoop=1;jettySize=auto;html=1;entryX=0;entryY=0.25;entryDx=0;entryDy=0;fontSize=16;" edge="1" parent="1" source="NyGDiiPo9qB9vYRdMTSr-12" target="NyGDiiPo9qB9vYRdMTSr-15">
          <mxGeometry relative="1" as="geometry" />
        </mxCell>
        <mxCell id="NyGDiiPo9qB9vYRdMTSr-12" value="g" style="rounded=0;whiteSpace=wrap;html=1;fontSize=16;fillColor=#cdeb8b;strokeColor=#36393d;" vertex="1" parent="1">
          <mxGeometry x="429" y="-295" width="40" height="40" as="geometry" />
        </mxCell>
        <mxCell id="NyGDiiPo9qB9vYRdMTSr-13" style="edgeStyle=orthogonalEdgeStyle;rounded=0;orthogonalLoop=1;jettySize=auto;html=1;fontSize=16;" edge="1" parent="1" source="NyGDiiPo9qB9vYRdMTSr-14" target="NyGDiiPo9qB9vYRdMTSr-30">
          <mxGeometry relative="1" as="geometry" />
        </mxCell>
        <mxCell id="NyGDiiPo9qB9vYRdMTSr-14" value="页36" style="rounded=0;whiteSpace=wrap;html=1;fontSize=16;fillColor=#cce5ff;strokeColor=#36393d;" vertex="1" parent="1">
          <mxGeometry x="429" y="-255" width="40" height="40" as="geometry" />
        </mxCell>
        <mxCell id="NyGDiiPo9qB9vYRdMTSr-15" value="最大记录" style="rounded=0;whiteSpace=wrap;html=1;fontSize=16;fillColor=#ffff88;strokeColor=#36393d;" vertex="1" parent="1">
          <mxGeometry x="500" y="-295" width="30" height="80" as="geometry" />
        </mxCell>
        <mxCell id="NyGDiiPo9qB9vYRdMTSr-16" style="edgeStyle=orthogonalEdgeStyle;rounded=0;orthogonalLoop=1;jettySize=auto;html=1;entryX=0;entryY=0.5;entryDx=0;entryDy=0;fontSize=16;exitX=1;exitY=0.25;exitDx=0;exitDy=0;" edge="1" parent="1" source="NyGDiiPo9qB9vYRdMTSr-17" target="NyGDiiPo9qB9vYRdMTSr-8">
          <mxGeometry relative="1" as="geometry" />
        </mxCell>
        <mxCell id="NyGDiiPo9qB9vYRdMTSr-17" value="最小记录" style="rounded=0;whiteSpace=wrap;html=1;fontSize=16;fillColor=#ffff88;strokeColor=#36393d;" vertex="1" parent="1">
          <mxGeometry x="280" y="-295" width="30" height="80" as="geometry" />
        </mxCell>
        <mxCell id="NyGDiiPo9qB9vYRdMTSr-18" style="edgeStyle=orthogonalEdgeStyle;rounded=0;orthogonalLoop=1;jettySize=auto;html=1;entryX=1.005;entryY=0.633;entryDx=0;entryDy=0;entryPerimeter=0;fontSize=12;exitX=-0.004;exitY=0.633;exitDx=0;exitDy=0;exitPerimeter=0;" edge="1" parent="1" source="NyGDiiPo9qB9vYRdMTSr-19" target="NyGDiiPo9qB9vYRdMTSr-32">
          <mxGeometry relative="1" as="geometry" />
        </mxCell>
        <mxCell id="NyGDiiPo9qB9vYRdMTSr-19" value="" style="rounded=0;whiteSpace=wrap;html=1;fontSize=16;" vertex="1" parent="1">
          <mxGeometry x="469" y="-95" width="260" height="150" as="geometry" />
        </mxCell>
        <mxCell id="NyGDiiPo9qB9vYRdMTSr-20" value="页目录" style="rounded=1;whiteSpace=wrap;html=1;fontSize=16;fillColor=#ffcccc;strokeColor=#36393d;" vertex="1" parent="1">
          <mxGeometry x="499" y="-85" width="210" height="30" as="geometry" />
        </mxCell>
        <mxCell id="NyGDiiPo9qB9vYRdMTSr-21" value="" style="rounded=1;whiteSpace=wrap;html=1;fontSize=16;fillColor=#f9f7ed;strokeColor=#36393d;" vertex="1" parent="1">
          <mxGeometry x="549" y="-50" width="160" height="95" as="geometry" />
        </mxCell>
        <mxCell id="NyGDiiPo9qB9vYRdMTSr-22" value="" style="rounded=1;whiteSpace=wrap;html=1;fontSize=16;fillColor=#f9f7ed;strokeColor=#36393d;" vertex="1" parent="1">
          <mxGeometry x="494" y="-50" width="40" height="100" as="geometry" />
        </mxCell>
        <mxCell id="NyGDiiPo9qB9vYRdMTSr-23" value="g" style="rounded=0;whiteSpace=wrap;html=1;fontSize=16;fillColor=#cdeb8b;strokeColor=#36393d;" vertex="1" parent="1">
          <mxGeometry x="568" y="-40" width="40" height="40" as="geometry" />
        </mxCell>
        <mxCell id="NyGDiiPo9qB9vYRdMTSr-24" style="edgeStyle=orthogonalEdgeStyle;rounded=0;orthogonalLoop=1;jettySize=auto;html=1;entryX=0.5;entryY=0;entryDx=0;entryDy=0;fontSize=16;" edge="1" parent="1" source="NyGDiiPo9qB9vYRdMTSr-25" target="NyGDiiPo9qB9vYRdMTSr-112">
          <mxGeometry relative="1" as="geometry">
            <Array as="points">
              <mxPoint x="588" y="90" />
              <mxPoint x="895" y="90" />
            </Array>
          </mxGeometry>
        </mxCell>
        <mxCell id="NyGDiiPo9qB9vYRdMTSr-25" value="页8" style="rounded=0;whiteSpace=wrap;html=1;fontSize=16;fillColor=#cce5ff;strokeColor=#36393d;" vertex="1" parent="1">
          <mxGeometry x="568" width="40" height="40" as="geometry" />
        </mxCell>
        <mxCell id="NyGDiiPo9qB9vYRdMTSr-26" style="edgeStyle=orthogonalEdgeStyle;rounded=0;orthogonalLoop=1;jettySize=auto;html=1;entryX=0;entryY=0.5;entryDx=0;entryDy=0;fontSize=16;fillColor=#cdeb8b;strokeColor=#36393d;" edge="1" parent="1" source="NyGDiiPo9qB9vYRdMTSr-23">
          <mxGeometry relative="1" as="geometry">
            <mxPoint x="648" y="-20" as="targetPoint" />
          </mxGeometry>
        </mxCell>
        <mxCell id="NyGDiiPo9qB9vYRdMTSr-27" value="最大记录" style="rounded=0;whiteSpace=wrap;html=1;fontSize=16;fillColor=#ffff88;strokeColor=#36393d;" vertex="1" parent="1">
          <mxGeometry x="649" y="-45" width="30" height="80" as="geometry" />
        </mxCell>
        <mxCell id="NyGDiiPo9qB9vYRdMTSr-28" style="edgeStyle=orthogonalEdgeStyle;rounded=0;orthogonalLoop=1;jettySize=auto;html=1;entryX=0;entryY=0.5;entryDx=0;entryDy=0;fontSize=16;exitX=1;exitY=0.25;exitDx=0;exitDy=0;" edge="1" parent="1" source="NyGDiiPo9qB9vYRdMTSr-29" target="NyGDiiPo9qB9vYRdMTSr-23">
          <mxGeometry relative="1" as="geometry" />
        </mxCell>
        <mxCell id="NyGDiiPo9qB9vYRdMTSr-29" value="最小记录" style="rounded=0;whiteSpace=wrap;html=1;fontSize=16;fillColor=#ffff88;strokeColor=#36393d;" vertex="1" parent="1">
          <mxGeometry x="499" y="-40" width="30" height="80" as="geometry" />
        </mxCell>
        <mxCell id="NyGDiiPo9qB9vYRdMTSr-30" value="非叶子节点（页36）" style="rounded=0;whiteSpace=wrap;html=1;fontSize=16;fillColor=#ffcc99;strokeColor=#36393d;" vertex="1" parent="1">
          <mxGeometry x="469" y="-135" width="260" height="40" as="geometry" />
        </mxCell>
        <mxCell id="NyGDiiPo9qB9vYRdMTSr-31" style="edgeStyle=orthogonalEdgeStyle;rounded=0;orthogonalLoop=1;jettySize=auto;html=1;entryX=0;entryY=0.25;entryDx=0;entryDy=0;fontSize=12;exitX=1;exitY=0.25;exitDx=0;exitDy=0;" edge="1" parent="1" source="NyGDiiPo9qB9vYRdMTSr-32" target="NyGDiiPo9qB9vYRdMTSr-19">
          <mxGeometry relative="1" as="geometry" />
        </mxCell>
        <mxCell id="NyGDiiPo9qB9vYRdMTSr-32" value="" style="rounded=0;whiteSpace=wrap;html=1;fontSize=16;" vertex="1" parent="1">
          <mxGeometry x="-10" y="-95" width="380" height="150" as="geometry" />
        </mxCell>
        <mxCell id="NyGDiiPo9qB9vYRdMTSr-33" value="页目录" style="rounded=1;whiteSpace=wrap;html=1;fontSize=16;fillColor=#ffcccc;strokeColor=#36393d;" vertex="1" parent="1">
          <mxGeometry x="15" y="-85" width="335" height="30" as="geometry" />
        </mxCell>
        <mxCell id="NyGDiiPo9qB9vYRdMTSr-34" value="" style="rounded=1;whiteSpace=wrap;html=1;fontSize=16;fillColor=#f9f7ed;strokeColor=#36393d;" vertex="1" parent="1">
          <mxGeometry x="70" y="-50" width="280" height="95" as="geometry" />
        </mxCell>
        <mxCell id="NyGDiiPo9qB9vYRdMTSr-35" value="" style="rounded=1;whiteSpace=wrap;html=1;fontSize=16;fillColor=#f9f7ed;strokeColor=#36393d;" vertex="1" parent="1">
          <mxGeometry x="15" y="-50" width="40" height="100" as="geometry" />
        </mxCell>
        <mxCell id="NyGDiiPo9qB9vYRdMTSr-36" value="a" style="rounded=0;whiteSpace=wrap;html=1;fontSize=16;fillColor=#cdeb8b;strokeColor=#36393d;" vertex="1" parent="1">
          <mxGeometry x="89" y="-40" width="40" height="40" as="geometry" />
        </mxCell>
        <mxCell id="NyGDiiPo9qB9vYRdMTSr-37" style="edgeStyle=orthogonalEdgeStyle;rounded=0;orthogonalLoop=1;jettySize=auto;html=1;fontSize=16;" edge="1" parent="1" source="NyGDiiPo9qB9vYRdMTSr-38" target="NyGDiiPo9qB9vYRdMTSr-67">
          <mxGeometry relative="1" as="geometry">
            <Array as="points">
              <mxPoint x="109" y="90" />
              <mxPoint x="-305" y="90" />
            </Array>
          </mxGeometry>
        </mxCell>
        <mxCell id="NyGDiiPo9qB9vYRdMTSr-38" value="页10" style="rounded=0;whiteSpace=wrap;html=1;fontSize=16;fillColor=#cce5ff;strokeColor=#36393d;" vertex="1" parent="1">
          <mxGeometry x="89" width="40" height="40" as="geometry" />
        </mxCell>
        <mxCell id="NyGDiiPo9qB9vYRdMTSr-39" value="c" style="rounded=0;whiteSpace=wrap;html=1;fontSize=16;fillColor=#cdeb8b;strokeColor=#36393d;" vertex="1" parent="1">
          <mxGeometry x="169" y="-40" width="40" height="40" as="geometry" />
        </mxCell>
        <mxCell id="NyGDiiPo9qB9vYRdMTSr-40" style="edgeStyle=orthogonalEdgeStyle;rounded=0;orthogonalLoop=1;jettySize=auto;html=1;entryX=0;entryY=0.5;entryDx=0;entryDy=0;fontSize=16;fillColor=#cdeb8b;strokeColor=#36393d;" edge="1" parent="1" source="NyGDiiPo9qB9vYRdMTSr-36" target="NyGDiiPo9qB9vYRdMTSr-39">
          <mxGeometry relative="1" as="geometry" />
        </mxCell>
        <mxCell id="NyGDiiPo9qB9vYRdMTSr-41" style="edgeStyle=orthogonalEdgeStyle;rounded=0;orthogonalLoop=1;jettySize=auto;html=1;fontSize=16;" edge="1" parent="1" source="NyGDiiPo9qB9vYRdMTSr-43" target="NyGDiiPo9qB9vYRdMTSr-82">
          <mxGeometry relative="1" as="geometry">
            <Array as="points">
              <mxPoint x="189" y="100" />
              <mxPoint x="95" y="100" />
            </Array>
          </mxGeometry>
        </mxCell>
        <mxCell id="NyGDiiPo9qB9vYRdMTSr-42" style="edgeStyle=orthogonalEdgeStyle;rounded=0;orthogonalLoop=1;jettySize=auto;html=1;entryX=0.5;entryY=0;entryDx=0;entryDy=0;fontSize=16;exitX=0.5;exitY=1;exitDx=0;exitDy=0;" edge="1" parent="1" source="NyGDiiPo9qB9vYRdMTSr-51" target="NyGDiiPo9qB9vYRdMTSr-97">
          <mxGeometry relative="1" as="geometry">
            <Array as="points">
              <mxPoint x="260" y="100" />
              <mxPoint x="495" y="100" />
            </Array>
          </mxGeometry>
        </mxCell>
        <mxCell id="NyGDiiPo9qB9vYRdMTSr-43" value="页22" style="rounded=0;whiteSpace=wrap;html=1;fontSize=16;fillColor=#cce5ff;strokeColor=#36393d;" vertex="1" parent="1">
          <mxGeometry x="169" width="40" height="40" as="geometry" />
        </mxCell>
        <mxCell id="NyGDiiPo9qB9vYRdMTSr-44" value="最大记录" style="rounded=0;whiteSpace=wrap;html=1;fontSize=16;fillColor=#ffff88;strokeColor=#36393d;" vertex="1" parent="1">
          <mxGeometry x="310" y="-40" width="30" height="80" as="geometry" />
        </mxCell>
        <mxCell id="NyGDiiPo9qB9vYRdMTSr-45" style="edgeStyle=orthogonalEdgeStyle;rounded=0;orthogonalLoop=1;jettySize=auto;html=1;entryX=0;entryY=0.5;entryDx=0;entryDy=0;fontSize=16;" edge="1" parent="1" source="NyGDiiPo9qB9vYRdMTSr-39" target="NyGDiiPo9qB9vYRdMTSr-50">
          <mxGeometry relative="1" as="geometry" />
        </mxCell>
        <mxCell id="NyGDiiPo9qB9vYRdMTSr-46" style="edgeStyle=orthogonalEdgeStyle;rounded=0;orthogonalLoop=1;jettySize=auto;html=1;entryX=0;entryY=0.5;entryDx=0;entryDy=0;fontSize=16;exitX=1;exitY=0.25;exitDx=0;exitDy=0;" edge="1" parent="1" source="NyGDiiPo9qB9vYRdMTSr-47" target="NyGDiiPo9qB9vYRdMTSr-36">
          <mxGeometry relative="1" as="geometry" />
        </mxCell>
        <mxCell id="NyGDiiPo9qB9vYRdMTSr-47" value="最小记录" style="rounded=0;whiteSpace=wrap;html=1;fontSize=16;fillColor=#ffff88;strokeColor=#36393d;" vertex="1" parent="1">
          <mxGeometry x="20" y="-40" width="30" height="80" as="geometry" />
        </mxCell>
        <mxCell id="NyGDiiPo9qB9vYRdMTSr-48" value="非叶子节点（页30）" style="rounded=0;whiteSpace=wrap;html=1;fontSize=16;fillColor=#ffcc99;strokeColor=#36393d;" vertex="1" parent="1">
          <mxGeometry x="-10" y="-135" width="380" height="40" as="geometry" />
        </mxCell>
        <mxCell id="NyGDiiPo9qB9vYRdMTSr-49" style="edgeStyle=orthogonalEdgeStyle;rounded=0;orthogonalLoop=1;jettySize=auto;html=1;fontSize=16;entryX=0;entryY=0.25;entryDx=0;entryDy=0;" edge="1" parent="1" source="NyGDiiPo9qB9vYRdMTSr-50" target="NyGDiiPo9qB9vYRdMTSr-44">
          <mxGeometry relative="1" as="geometry" />
        </mxCell>
        <mxCell id="NyGDiiPo9qB9vYRdMTSr-50" value="e" style="rounded=0;whiteSpace=wrap;html=1;fontSize=16;fillColor=#cdeb8b;strokeColor=#36393d;" vertex="1" parent="1">
          <mxGeometry x="240" y="-40" width="40" height="40" as="geometry" />
        </mxCell>
        <mxCell id="NyGDiiPo9qB9vYRdMTSr-51" value="页16" style="rounded=0;whiteSpace=wrap;html=1;fontSize=16;fillColor=#cce5ff;strokeColor=#36393d;" vertex="1" parent="1">
          <mxGeometry x="240" width="40" height="40" as="geometry" />
        </mxCell>
        <mxCell id="NyGDiiPo9qB9vYRdMTSr-52" value="" style="group" vertex="1" connectable="0" parent="1">
          <mxGeometry x="-470" y="140" width="1530" height="190" as="geometry" />
        </mxCell>
        <mxCell id="NyGDiiPo9qB9vYRdMTSr-53" value="" style="group" vertex="1" connectable="0" parent="NyGDiiPo9qB9vYRdMTSr-52">
          <mxGeometry width="330" height="190" as="geometry" />
        </mxCell>
        <mxCell id="NyGDiiPo9qB9vYRdMTSr-54" value="" style="rounded=0;whiteSpace=wrap;html=1;fontSize=16;" vertex="1" parent="NyGDiiPo9qB9vYRdMTSr-53">
          <mxGeometry y="40" width="330" height="150" as="geometry" />
        </mxCell>
        <mxCell id="NyGDiiPo9qB9vYRdMTSr-55" value="页目录" style="rounded=1;whiteSpace=wrap;html=1;fontSize=16;fillColor=#ffcccc;strokeColor=#36393d;" vertex="1" parent="NyGDiiPo9qB9vYRdMTSr-53">
          <mxGeometry x="30" y="50" width="270" height="30" as="geometry" />
        </mxCell>
        <mxCell id="NyGDiiPo9qB9vYRdMTSr-56" value="" style="rounded=1;whiteSpace=wrap;html=1;fontSize=16;fillColor=#f9f7ed;strokeColor=#36393d;" vertex="1" parent="NyGDiiPo9qB9vYRdMTSr-53">
          <mxGeometry x="80" y="85" width="220" height="95" as="geometry" />
        </mxCell>
        <mxCell id="NyGDiiPo9qB9vYRdMTSr-57" value="" style="rounded=1;whiteSpace=wrap;html=1;fontSize=16;fillColor=#f9f7ed;strokeColor=#36393d;" vertex="1" parent="NyGDiiPo9qB9vYRdMTSr-53">
          <mxGeometry x="25" y="85" width="40" height="100" as="geometry" />
        </mxCell>
        <mxCell id="NyGDiiPo9qB9vYRdMTSr-58" value="a" style="rounded=0;whiteSpace=wrap;html=1;fontSize=16;fillColor=#cdeb8b;strokeColor=#36393d;" vertex="1" parent="NyGDiiPo9qB9vYRdMTSr-53">
          <mxGeometry x="99" y="95" width="40" height="40" as="geometry" />
        </mxCell>
        <mxCell id="NyGDiiPo9qB9vYRdMTSr-59" value="1" style="rounded=0;whiteSpace=wrap;html=1;fontSize=16;fillColor=#cce5ff;strokeColor=#36393d;" vertex="1" parent="NyGDiiPo9qB9vYRdMTSr-53">
          <mxGeometry x="99" y="135" width="40" height="40" as="geometry" />
        </mxCell>
        <mxCell id="NyGDiiPo9qB9vYRdMTSr-60" value="b" style="rounded=0;whiteSpace=wrap;html=1;fontSize=16;fillColor=#cdeb8b;strokeColor=#36393d;" vertex="1" parent="NyGDiiPo9qB9vYRdMTSr-53">
          <mxGeometry x="179" y="95" width="40" height="40" as="geometry" />
        </mxCell>
        <mxCell id="NyGDiiPo9qB9vYRdMTSr-61" style="edgeStyle=orthogonalEdgeStyle;rounded=0;orthogonalLoop=1;jettySize=auto;html=1;entryX=0;entryY=0.5;entryDx=0;entryDy=0;fontSize=16;fillColor=#cdeb8b;strokeColor=#36393d;" edge="1" parent="NyGDiiPo9qB9vYRdMTSr-53" source="NyGDiiPo9qB9vYRdMTSr-58" target="NyGDiiPo9qB9vYRdMTSr-60">
          <mxGeometry relative="1" as="geometry" />
        </mxCell>
        <mxCell id="NyGDiiPo9qB9vYRdMTSr-62" value="2" style="rounded=0;whiteSpace=wrap;html=1;fontSize=16;fillColor=#cce5ff;strokeColor=#36393d;" vertex="1" parent="NyGDiiPo9qB9vYRdMTSr-53">
          <mxGeometry x="179" y="135" width="40" height="40" as="geometry" />
        </mxCell>
        <mxCell id="NyGDiiPo9qB9vYRdMTSr-63" value="最大记录" style="rounded=0;whiteSpace=wrap;html=1;fontSize=16;fillColor=#ffff88;strokeColor=#36393d;" vertex="1" parent="NyGDiiPo9qB9vYRdMTSr-53">
          <mxGeometry x="250" y="95" width="30" height="80" as="geometry" />
        </mxCell>
        <mxCell id="NyGDiiPo9qB9vYRdMTSr-64" style="edgeStyle=orthogonalEdgeStyle;rounded=0;orthogonalLoop=1;jettySize=auto;html=1;entryX=0;entryY=0.25;entryDx=0;entryDy=0;fontSize=16;" edge="1" parent="NyGDiiPo9qB9vYRdMTSr-53" source="NyGDiiPo9qB9vYRdMTSr-60" target="NyGDiiPo9qB9vYRdMTSr-63">
          <mxGeometry relative="1" as="geometry" />
        </mxCell>
        <mxCell id="NyGDiiPo9qB9vYRdMTSr-65" style="edgeStyle=orthogonalEdgeStyle;rounded=0;orthogonalLoop=1;jettySize=auto;html=1;entryX=0;entryY=0.5;entryDx=0;entryDy=0;fontSize=16;exitX=1;exitY=0.25;exitDx=0;exitDy=0;" edge="1" parent="NyGDiiPo9qB9vYRdMTSr-53" source="NyGDiiPo9qB9vYRdMTSr-66" target="NyGDiiPo9qB9vYRdMTSr-58">
          <mxGeometry relative="1" as="geometry" />
        </mxCell>
        <mxCell id="NyGDiiPo9qB9vYRdMTSr-66" value="最小记录" style="rounded=0;whiteSpace=wrap;html=1;fontSize=16;fillColor=#ffff88;strokeColor=#36393d;" vertex="1" parent="NyGDiiPo9qB9vYRdMTSr-53">
          <mxGeometry x="30" y="95" width="30" height="80" as="geometry" />
        </mxCell>
        <mxCell id="NyGDiiPo9qB9vYRdMTSr-67" value="叶子节点（页10）" style="rounded=0;whiteSpace=wrap;html=1;fontSize=16;fillColor=#ffcc99;strokeColor=#36393d;" vertex="1" parent="NyGDiiPo9qB9vYRdMTSr-53">
          <mxGeometry width="330" height="40" as="geometry" />
        </mxCell>
        <mxCell id="NyGDiiPo9qB9vYRdMTSr-68" value="" style="group" vertex="1" connectable="0" parent="NyGDiiPo9qB9vYRdMTSr-52">
          <mxGeometry x="400" width="330" height="190" as="geometry" />
        </mxCell>
        <mxCell id="NyGDiiPo9qB9vYRdMTSr-69" value="" style="rounded=0;whiteSpace=wrap;html=1;fontSize=16;" vertex="1" parent="NyGDiiPo9qB9vYRdMTSr-68">
          <mxGeometry y="40" width="330" height="150" as="geometry" />
        </mxCell>
        <mxCell id="NyGDiiPo9qB9vYRdMTSr-70" value="页目录" style="rounded=1;whiteSpace=wrap;html=1;fontSize=16;fillColor=#ffcccc;strokeColor=#36393d;" vertex="1" parent="NyGDiiPo9qB9vYRdMTSr-68">
          <mxGeometry x="30" y="50" width="270" height="30" as="geometry" />
        </mxCell>
        <mxCell id="NyGDiiPo9qB9vYRdMTSr-71" value="" style="rounded=1;whiteSpace=wrap;html=1;fontSize=16;fillColor=#f9f7ed;strokeColor=#36393d;" vertex="1" parent="NyGDiiPo9qB9vYRdMTSr-68">
          <mxGeometry x="80" y="85" width="220" height="95" as="geometry" />
        </mxCell>
        <mxCell id="NyGDiiPo9qB9vYRdMTSr-72" value="" style="rounded=1;whiteSpace=wrap;html=1;fontSize=16;fillColor=#f9f7ed;strokeColor=#36393d;" vertex="1" parent="NyGDiiPo9qB9vYRdMTSr-68">
          <mxGeometry x="25" y="85" width="40" height="100" as="geometry" />
        </mxCell>
        <mxCell id="NyGDiiPo9qB9vYRdMTSr-73" value="c" style="rounded=0;whiteSpace=wrap;html=1;fontSize=16;fillColor=#cdeb8b;strokeColor=#36393d;" vertex="1" parent="NyGDiiPo9qB9vYRdMTSr-68">
          <mxGeometry x="99" y="95" width="40" height="40" as="geometry" />
        </mxCell>
        <mxCell id="NyGDiiPo9qB9vYRdMTSr-74" value="3" style="rounded=0;whiteSpace=wrap;html=1;fontSize=16;fillColor=#cce5ff;strokeColor=#36393d;" vertex="1" parent="NyGDiiPo9qB9vYRdMTSr-68">
          <mxGeometry x="99" y="135" width="40" height="40" as="geometry" />
        </mxCell>
        <mxCell id="NyGDiiPo9qB9vYRdMTSr-75" value="d" style="rounded=0;whiteSpace=wrap;html=1;fontSize=16;fillColor=#cdeb8b;strokeColor=#36393d;" vertex="1" parent="NyGDiiPo9qB9vYRdMTSr-68">
          <mxGeometry x="179" y="95" width="40" height="40" as="geometry" />
        </mxCell>
        <mxCell id="NyGDiiPo9qB9vYRdMTSr-76" style="edgeStyle=orthogonalEdgeStyle;rounded=0;orthogonalLoop=1;jettySize=auto;html=1;entryX=0;entryY=0.5;entryDx=0;entryDy=0;fontSize=16;fillColor=#cdeb8b;strokeColor=#36393d;" edge="1" parent="NyGDiiPo9qB9vYRdMTSr-68" source="NyGDiiPo9qB9vYRdMTSr-73" target="NyGDiiPo9qB9vYRdMTSr-75">
          <mxGeometry relative="1" as="geometry" />
        </mxCell>
        <mxCell id="NyGDiiPo9qB9vYRdMTSr-77" value="4" style="rounded=0;whiteSpace=wrap;html=1;fontSize=16;fillColor=#cce5ff;strokeColor=#36393d;" vertex="1" parent="NyGDiiPo9qB9vYRdMTSr-68">
          <mxGeometry x="179" y="135" width="40" height="40" as="geometry" />
        </mxCell>
        <mxCell id="NyGDiiPo9qB9vYRdMTSr-78" value="最大记录" style="rounded=0;whiteSpace=wrap;html=1;fontSize=16;fillColor=#ffff88;strokeColor=#36393d;" vertex="1" parent="NyGDiiPo9qB9vYRdMTSr-68">
          <mxGeometry x="250" y="95" width="30" height="80" as="geometry" />
        </mxCell>
        <mxCell id="NyGDiiPo9qB9vYRdMTSr-79" style="edgeStyle=orthogonalEdgeStyle;rounded=0;orthogonalLoop=1;jettySize=auto;html=1;entryX=0;entryY=0.25;entryDx=0;entryDy=0;fontSize=16;" edge="1" parent="NyGDiiPo9qB9vYRdMTSr-68" source="NyGDiiPo9qB9vYRdMTSr-75" target="NyGDiiPo9qB9vYRdMTSr-78">
          <mxGeometry relative="1" as="geometry" />
        </mxCell>
        <mxCell id="NyGDiiPo9qB9vYRdMTSr-80" style="edgeStyle=orthogonalEdgeStyle;rounded=0;orthogonalLoop=1;jettySize=auto;html=1;entryX=0;entryY=0.5;entryDx=0;entryDy=0;fontSize=16;exitX=1;exitY=0.25;exitDx=0;exitDy=0;" edge="1" parent="NyGDiiPo9qB9vYRdMTSr-68" source="NyGDiiPo9qB9vYRdMTSr-81" target="NyGDiiPo9qB9vYRdMTSr-73">
          <mxGeometry relative="1" as="geometry" />
        </mxCell>
        <mxCell id="NyGDiiPo9qB9vYRdMTSr-81" value="最小记录" style="rounded=0;whiteSpace=wrap;html=1;fontSize=16;fillColor=#ffff88;strokeColor=#36393d;" vertex="1" parent="NyGDiiPo9qB9vYRdMTSr-68">
          <mxGeometry x="30" y="95" width="30" height="80" as="geometry" />
        </mxCell>
        <mxCell id="NyGDiiPo9qB9vYRdMTSr-82" value="叶子节点（页22）" style="rounded=0;whiteSpace=wrap;html=1;fontSize=16;fillColor=#ffcc99;strokeColor=#36393d;" vertex="1" parent="NyGDiiPo9qB9vYRdMTSr-68">
          <mxGeometry width="330" height="40" as="geometry" />
        </mxCell>
        <mxCell id="NyGDiiPo9qB9vYRdMTSr-83" value="" style="group" vertex="1" connectable="0" parent="NyGDiiPo9qB9vYRdMTSr-52">
          <mxGeometry x="800" width="330" height="190" as="geometry" />
        </mxCell>
        <mxCell id="NyGDiiPo9qB9vYRdMTSr-84" value="" style="rounded=0;whiteSpace=wrap;html=1;fontSize=16;" vertex="1" parent="NyGDiiPo9qB9vYRdMTSr-83">
          <mxGeometry y="40" width="330" height="150" as="geometry" />
        </mxCell>
        <mxCell id="NyGDiiPo9qB9vYRdMTSr-85" value="页目录" style="rounded=1;whiteSpace=wrap;html=1;fontSize=16;fillColor=#ffcccc;strokeColor=#36393d;" vertex="1" parent="NyGDiiPo9qB9vYRdMTSr-83">
          <mxGeometry x="30" y="50" width="270" height="30" as="geometry" />
        </mxCell>
        <mxCell id="NyGDiiPo9qB9vYRdMTSr-86" value="" style="rounded=1;whiteSpace=wrap;html=1;fontSize=16;fillColor=#f9f7ed;strokeColor=#36393d;" vertex="1" parent="NyGDiiPo9qB9vYRdMTSr-83">
          <mxGeometry x="80" y="85" width="220" height="95" as="geometry" />
        </mxCell>
        <mxCell id="NyGDiiPo9qB9vYRdMTSr-87" value="" style="rounded=1;whiteSpace=wrap;html=1;fontSize=16;fillColor=#f9f7ed;strokeColor=#36393d;" vertex="1" parent="NyGDiiPo9qB9vYRdMTSr-83">
          <mxGeometry x="25" y="85" width="40" height="100" as="geometry" />
        </mxCell>
        <mxCell id="NyGDiiPo9qB9vYRdMTSr-88" value="e" style="rounded=0;whiteSpace=wrap;html=1;fontSize=16;fillColor=#cdeb8b;strokeColor=#36393d;" vertex="1" parent="NyGDiiPo9qB9vYRdMTSr-83">
          <mxGeometry x="99" y="95" width="40" height="40" as="geometry" />
        </mxCell>
        <mxCell id="NyGDiiPo9qB9vYRdMTSr-89" value="5" style="rounded=0;whiteSpace=wrap;html=1;fontSize=16;fillColor=#cce5ff;strokeColor=#36393d;" vertex="1" parent="NyGDiiPo9qB9vYRdMTSr-83">
          <mxGeometry x="99" y="135" width="40" height="40" as="geometry" />
        </mxCell>
        <mxCell id="NyGDiiPo9qB9vYRdMTSr-90" value="f" style="rounded=0;whiteSpace=wrap;html=1;fontSize=16;fillColor=#cdeb8b;strokeColor=#36393d;" vertex="1" parent="NyGDiiPo9qB9vYRdMTSr-83">
          <mxGeometry x="179" y="95" width="40" height="40" as="geometry" />
        </mxCell>
        <mxCell id="NyGDiiPo9qB9vYRdMTSr-91" style="edgeStyle=orthogonalEdgeStyle;rounded=0;orthogonalLoop=1;jettySize=auto;html=1;entryX=0;entryY=0.5;entryDx=0;entryDy=0;fontSize=16;fillColor=#cdeb8b;strokeColor=#36393d;" edge="1" parent="NyGDiiPo9qB9vYRdMTSr-83" source="NyGDiiPo9qB9vYRdMTSr-88" target="NyGDiiPo9qB9vYRdMTSr-90">
          <mxGeometry relative="1" as="geometry" />
        </mxCell>
        <mxCell id="NyGDiiPo9qB9vYRdMTSr-92" value="6" style="rounded=0;whiteSpace=wrap;html=1;fontSize=16;fillColor=#cce5ff;strokeColor=#36393d;" vertex="1" parent="NyGDiiPo9qB9vYRdMTSr-83">
          <mxGeometry x="179" y="135" width="40" height="40" as="geometry" />
        </mxCell>
        <mxCell id="NyGDiiPo9qB9vYRdMTSr-93" value="最大记录" style="rounded=0;whiteSpace=wrap;html=1;fontSize=16;fillColor=#ffff88;strokeColor=#36393d;" vertex="1" parent="NyGDiiPo9qB9vYRdMTSr-83">
          <mxGeometry x="250" y="95" width="30" height="80" as="geometry" />
        </mxCell>
        <mxCell id="NyGDiiPo9qB9vYRdMTSr-94" style="edgeStyle=orthogonalEdgeStyle;rounded=0;orthogonalLoop=1;jettySize=auto;html=1;entryX=0;entryY=0.25;entryDx=0;entryDy=0;fontSize=16;" edge="1" parent="NyGDiiPo9qB9vYRdMTSr-83" source="NyGDiiPo9qB9vYRdMTSr-90" target="NyGDiiPo9qB9vYRdMTSr-93">
          <mxGeometry relative="1" as="geometry" />
        </mxCell>
        <mxCell id="NyGDiiPo9qB9vYRdMTSr-95" style="edgeStyle=orthogonalEdgeStyle;rounded=0;orthogonalLoop=1;jettySize=auto;html=1;entryX=0;entryY=0.5;entryDx=0;entryDy=0;fontSize=16;exitX=1;exitY=0.25;exitDx=0;exitDy=0;" edge="1" parent="NyGDiiPo9qB9vYRdMTSr-83" source="NyGDiiPo9qB9vYRdMTSr-96" target="NyGDiiPo9qB9vYRdMTSr-88">
          <mxGeometry relative="1" as="geometry" />
        </mxCell>
        <mxCell id="NyGDiiPo9qB9vYRdMTSr-96" value="最小记录" style="rounded=0;whiteSpace=wrap;html=1;fontSize=16;fillColor=#ffff88;strokeColor=#36393d;" vertex="1" parent="NyGDiiPo9qB9vYRdMTSr-83">
          <mxGeometry x="30" y="95" width="30" height="80" as="geometry" />
        </mxCell>
        <mxCell id="NyGDiiPo9qB9vYRdMTSr-97" value="叶子节点（页16）" style="rounded=0;whiteSpace=wrap;html=1;fontSize=16;fillColor=#ffcc99;strokeColor=#36393d;" vertex="1" parent="NyGDiiPo9qB9vYRdMTSr-83">
          <mxGeometry width="330" height="40" as="geometry" />
        </mxCell>
        <mxCell id="NyGDiiPo9qB9vYRdMTSr-98" value="" style="group" vertex="1" connectable="0" parent="NyGDiiPo9qB9vYRdMTSr-52">
          <mxGeometry x="1200" width="330" height="190" as="geometry" />
        </mxCell>
        <mxCell id="NyGDiiPo9qB9vYRdMTSr-99" value="" style="rounded=0;whiteSpace=wrap;html=1;fontSize=16;" vertex="1" parent="NyGDiiPo9qB9vYRdMTSr-98">
          <mxGeometry y="40" width="330" height="150" as="geometry" />
        </mxCell>
        <mxCell id="NyGDiiPo9qB9vYRdMTSr-100" value="页目录" style="rounded=1;whiteSpace=wrap;html=1;fontSize=16;fillColor=#ffcccc;strokeColor=#36393d;" vertex="1" parent="NyGDiiPo9qB9vYRdMTSr-98">
          <mxGeometry x="30" y="50" width="270" height="30" as="geometry" />
        </mxCell>
        <mxCell id="NyGDiiPo9qB9vYRdMTSr-101" value="" style="rounded=1;whiteSpace=wrap;html=1;fontSize=16;fillColor=#f9f7ed;strokeColor=#36393d;" vertex="1" parent="NyGDiiPo9qB9vYRdMTSr-98">
          <mxGeometry x="80" y="85" width="220" height="95" as="geometry" />
        </mxCell>
        <mxCell id="NyGDiiPo9qB9vYRdMTSr-102" value="" style="rounded=1;whiteSpace=wrap;html=1;fontSize=16;fillColor=#f9f7ed;strokeColor=#36393d;" vertex="1" parent="NyGDiiPo9qB9vYRdMTSr-98">
          <mxGeometry x="25" y="85" width="40" height="100" as="geometry" />
        </mxCell>
        <mxCell id="NyGDiiPo9qB9vYRdMTSr-103" value="g" style="rounded=0;whiteSpace=wrap;html=1;fontSize=16;fillColor=#cdeb8b;strokeColor=#36393d;" vertex="1" parent="NyGDiiPo9qB9vYRdMTSr-98">
          <mxGeometry x="99" y="95" width="40" height="40" as="geometry" />
        </mxCell>
        <mxCell id="NyGDiiPo9qB9vYRdMTSr-104" value="7" style="rounded=0;whiteSpace=wrap;html=1;fontSize=16;fillColor=#cce5ff;strokeColor=#36393d;" vertex="1" parent="NyGDiiPo9qB9vYRdMTSr-98">
          <mxGeometry x="99" y="135" width="40" height="40" as="geometry" />
        </mxCell>
        <mxCell id="NyGDiiPo9qB9vYRdMTSr-105" value="h" style="rounded=0;whiteSpace=wrap;html=1;fontSize=16;fillColor=#cdeb8b;strokeColor=#36393d;" vertex="1" parent="NyGDiiPo9qB9vYRdMTSr-98">
          <mxGeometry x="179" y="95" width="40" height="40" as="geometry" />
        </mxCell>
        <mxCell id="NyGDiiPo9qB9vYRdMTSr-106" style="edgeStyle=orthogonalEdgeStyle;rounded=0;orthogonalLoop=1;jettySize=auto;html=1;entryX=0;entryY=0.5;entryDx=0;entryDy=0;fontSize=16;fillColor=#cdeb8b;strokeColor=#36393d;" edge="1" parent="NyGDiiPo9qB9vYRdMTSr-98" source="NyGDiiPo9qB9vYRdMTSr-103" target="NyGDiiPo9qB9vYRdMTSr-105">
          <mxGeometry relative="1" as="geometry" />
        </mxCell>
        <mxCell id="NyGDiiPo9qB9vYRdMTSr-107" value="8" style="rounded=0;whiteSpace=wrap;html=1;fontSize=16;fillColor=#cce5ff;strokeColor=#36393d;" vertex="1" parent="NyGDiiPo9qB9vYRdMTSr-98">
          <mxGeometry x="179" y="135" width="40" height="40" as="geometry" />
        </mxCell>
        <mxCell id="NyGDiiPo9qB9vYRdMTSr-108" value="最大记录" style="rounded=0;whiteSpace=wrap;html=1;fontSize=16;fillColor=#ffff88;strokeColor=#36393d;" vertex="1" parent="NyGDiiPo9qB9vYRdMTSr-98">
          <mxGeometry x="250" y="95" width="30" height="80" as="geometry" />
        </mxCell>
        <mxCell id="NyGDiiPo9qB9vYRdMTSr-109" style="edgeStyle=orthogonalEdgeStyle;rounded=0;orthogonalLoop=1;jettySize=auto;html=1;entryX=0;entryY=0.25;entryDx=0;entryDy=0;fontSize=16;" edge="1" parent="NyGDiiPo9qB9vYRdMTSr-98" source="NyGDiiPo9qB9vYRdMTSr-105" target="NyGDiiPo9qB9vYRdMTSr-108">
          <mxGeometry relative="1" as="geometry" />
        </mxCell>
        <mxCell id="NyGDiiPo9qB9vYRdMTSr-110" style="edgeStyle=orthogonalEdgeStyle;rounded=0;orthogonalLoop=1;jettySize=auto;html=1;entryX=0;entryY=0.5;entryDx=0;entryDy=0;fontSize=16;exitX=1;exitY=0.25;exitDx=0;exitDy=0;" edge="1" parent="NyGDiiPo9qB9vYRdMTSr-98" source="NyGDiiPo9qB9vYRdMTSr-111" target="NyGDiiPo9qB9vYRdMTSr-103">
          <mxGeometry relative="1" as="geometry" />
        </mxCell>
        <mxCell id="NyGDiiPo9qB9vYRdMTSr-111" value="最小记录" style="rounded=0;whiteSpace=wrap;html=1;fontSize=16;fillColor=#ffff88;strokeColor=#36393d;" vertex="1" parent="NyGDiiPo9qB9vYRdMTSr-98">
          <mxGeometry x="30" y="95" width="30" height="80" as="geometry" />
        </mxCell>
        <mxCell id="NyGDiiPo9qB9vYRdMTSr-112" value="叶子节点（页8）" style="rounded=0;whiteSpace=wrap;html=1;fontSize=16;fillColor=#ffcc99;strokeColor=#36393d;" vertex="1" parent="NyGDiiPo9qB9vYRdMTSr-98">
          <mxGeometry width="330" height="40" as="geometry" />
        </mxCell>
        <mxCell id="NyGDiiPo9qB9vYRdMTSr-113" style="edgeStyle=orthogonalEdgeStyle;rounded=0;orthogonalLoop=1;jettySize=auto;html=1;exitX=1;exitY=0.25;exitDx=0;exitDy=0;entryX=0;entryY=0.25;entryDx=0;entryDy=0;fontSize=12;" edge="1" parent="NyGDiiPo9qB9vYRdMTSr-52" source="NyGDiiPo9qB9vYRdMTSr-54" target="NyGDiiPo9qB9vYRdMTSr-69">
          <mxGeometry relative="1" as="geometry" />
        </mxCell>
        <mxCell id="NyGDiiPo9qB9vYRdMTSr-114" style="edgeStyle=orthogonalEdgeStyle;rounded=0;orthogonalLoop=1;jettySize=auto;html=1;entryX=1;entryY=0.75;entryDx=0;entryDy=0;fontSize=12;exitX=0;exitY=0.75;exitDx=0;exitDy=0;" edge="1" parent="NyGDiiPo9qB9vYRdMTSr-52" source="NyGDiiPo9qB9vYRdMTSr-69" target="NyGDiiPo9qB9vYRdMTSr-54">
          <mxGeometry relative="1" as="geometry" />
        </mxCell>
        <mxCell id="NyGDiiPo9qB9vYRdMTSr-115" style="edgeStyle=orthogonalEdgeStyle;rounded=0;orthogonalLoop=1;jettySize=auto;html=1;entryX=0;entryY=0.25;entryDx=0;entryDy=0;fontSize=12;exitX=1;exitY=0.25;exitDx=0;exitDy=0;" edge="1" parent="NyGDiiPo9qB9vYRdMTSr-52" source="NyGDiiPo9qB9vYRdMTSr-69" target="NyGDiiPo9qB9vYRdMTSr-84">
          <mxGeometry relative="1" as="geometry" />
        </mxCell>
        <mxCell id="NyGDiiPo9qB9vYRdMTSr-116" style="edgeStyle=orthogonalEdgeStyle;rounded=0;orthogonalLoop=1;jettySize=auto;html=1;entryX=1;entryY=0.687;entryDx=0;entryDy=0;entryPerimeter=0;fontSize=12;exitX=0.003;exitY=0.687;exitDx=0;exitDy=0;exitPerimeter=0;" edge="1" parent="NyGDiiPo9qB9vYRdMTSr-52" source="NyGDiiPo9qB9vYRdMTSr-84" target="NyGDiiPo9qB9vYRdMTSr-69">
          <mxGeometry relative="1" as="geometry" />
        </mxCell>
        <mxCell id="NyGDiiPo9qB9vYRdMTSr-117" style="edgeStyle=orthogonalEdgeStyle;rounded=0;orthogonalLoop=1;jettySize=auto;html=1;entryX=0;entryY=0.25;entryDx=0;entryDy=0;fontSize=12;exitX=1;exitY=0.25;exitDx=0;exitDy=0;" edge="1" parent="NyGDiiPo9qB9vYRdMTSr-52" source="NyGDiiPo9qB9vYRdMTSr-84" target="NyGDiiPo9qB9vYRdMTSr-99">
          <mxGeometry relative="1" as="geometry" />
        </mxCell>
        <mxCell id="NyGDiiPo9qB9vYRdMTSr-118" style="edgeStyle=orthogonalEdgeStyle;rounded=0;orthogonalLoop=1;jettySize=auto;html=1;fontSize=12;" edge="1" parent="1">
          <mxGeometry relative="1" as="geometry">
            <mxPoint x="660" y="290" as="targetPoint" />
            <mxPoint x="730" y="290" as="sourcePoint" />
          </mxGeometry>
        </mxCell>
      </root>
    </mxGraphModel>
  </diagram>
</mxfile>
